Inverse Dynamics Generalized Forces
version=1
nRows=13
nColumns=34
inDegrees=no
endheader 
time	pelvis_tilt_moment	pelvis_list_moment	pelvis_rotation_moment	pelvis_tx_force	pelvis_ty_force	pelvis_tz_force	hip_flexion_l_moment	hip_adduction_l_moment	hip_rotation_l_moment	hip_flexion_r_moment	hip_adduction_r_moment	hip_rotation_r_moment	knee_angle_l_moment	knee_angle_r_moment	ankle_angle_l_moment	ankle_angle_r_moment	subtalar_angle_l_moment	subtalar_angle_r_moment	mtp_angle_l_moment	mtp_angle_r_moment	lumbar_extension_moment	lumbar_bending_moment	lumbar_rotation_moment	arm_flex_l_moment	arm_add_l_moment	arm_rot_l_moment	arm_flex_r_moment	arm_add_r_moment	arm_rot_r_moment	elbow_flex_l_moment	elbow_flex_r_moment	pro_sup_l_moment	pro_sup_r_moment	
         10.10000000	         -0.00000357	         -0.00000602	         -0.00000065	          0.00000110	          0.00000159	          0.00000059	        172.05597149	         10.67993243	          5.52854138	        -67.84168960	        -41.13150296	          7.14672589	        -66.82989627	        -39.43137140	         -0.53798094	          7.02589534	          0.62985347	         -0.53675350	          0.15134731	         -0.35602081	        -11.46585046	         35.52143169	         25.03788119	        117.75721393	         44.87851816	        -14.70372019	        101.39870866	        149.67652580	         10.21983386	         12.73503274	        -43.44975554	         -1.48293253	          2.31005387	
         10.11000000	          0.00000007	          0.00000069	         -0.00000006	         -0.00000058	         -0.00000052	          0.00000012	        143.29640727	         12.11557960	          3.37125962	        -83.89931500	        -19.28256405	          8.84285716	        -60.39414426	        -19.88782877	         -1.11604634	          6.44874207	          1.62259734	         -1.17213721	          0.05958027	         -0.39220682	         -7.53823608	         25.82980414	         47.75576585	         50.84672815	         71.00028726	        -16.53912998	         38.61242018	        109.53332428	        -30.62998572	         22.94479750	        -47.35745086	         -0.18943805	          0.09736077	
         10.12000000	         -0.00000098	         -0.00000038	         -0.00000004	         -0.00000029	          0.00000067	         -0.00000044	        119.61798870	         -0.01433763	          2.99743283	        -78.52959616	         -9.99805122	          9.95009696	        -50.73924585	         -8.49235272	         -1.85565240	          5.91665735	          2.13620973	         -1.63001850	          0.03283440	         -0.42264819	        -35.23317416	         -0.81869406	         48.47555756	          0.67017767	         90.57186649	        -26.16259024	         -8.85321754	         44.87219971	        -60.99424372	         19.31952393	          2.75271208	         -0.48776254	         -1.34080408	
         10.13000000	          0.00000017	          0.00000044	          0.00000003	         -0.00000056	         -0.00000041	          0.00000011	        109.46973723	         -2.02920489	          1.74980897	       -110.12808229	          5.19153764	          9.68094262	        -47.04304487	         17.27625799	         -3.86508542	          3.25734128	          2.53240436	         -0.87793684	          0.16521265	         -0.43161769	        -18.11339933	        -23.79048889	         40.98189249	        -32.85462575	        105.12960041	        -20.90832932	        -26.69959823	         -3.90354709	        -82.95713970	          8.20387612	         40.38672138	         -0.60169666	         -2.30894039	
         10.14000000	         -0.00000036	         -0.00000003	         -0.00000003	         -0.00000008	          0.00000013	         -0.00000012	         99.14732702	        -16.77927381	          3.09959094	       -157.34954865	         22.72797508	          8.48298908	        -38.92627594	         49.00062627	         -6.19683772	          0.10773455	          2.40629494	         -0.22099591	          0.39532448	         -0.36322622	         41.21974721	        -72.68971922	         34.00234669	         12.65192803	        110.92291460	        -48.48809366	         -3.19736890	        -40.59961018	        -98.73668558	        -16.89644919	         68.22344426	         -3.56974771	         -3.81142142	
         10.15000000	          0.00000002	         -0.00000011	          0.00000002	         -0.00000030	         -0.00000022	          0.00000008	         90.87015551	        -12.57087177	          1.27016736	       -201.48292993	         41.71780288	          7.73944717	        -31.91803058	         79.88053333	         -7.69732390	         -2.99715293	          2.19811267	          0.08290244	          0.57935269	         -0.19524348	        105.47701113	        -87.25323838	         31.31027737	         46.95398606	         45.48952142	        -47.65885098	         29.92289089	        -49.16259102	        -35.71284479	        -49.09313604	         88.55825103	         -5.54876340	         -3.24230828	
         10.16000000	         -0.00000018	         -0.00000021	          0.00000001	         -0.00000017	         -0.00000001	          0.00000000	         96.48225376	        -24.25941304	          5.08988820	       -223.85506251	         53.56078768	          8.12142385	        -20.20165728	         99.54954667	         -4.94548637	         -3.57216034	          0.68018852	         -0.85531152	          0.44093321	         -0.06315176	        150.84562271	       -113.00722835	         63.47033541	         72.80233057	         -3.69533491	        -19.12477487	         59.51052030	         -7.32804459	         11.11913132	        -34.62111653	         83.57450636	         -2.03315834	         -2.58343514	
         10.17000000	         -0.00000004	          0.00000005	         -0.00000001	         -0.00000009	          0.00000001	         -0.00000002	        100.93554912	         -9.88287344	          3.74746031	       -223.87440428	         58.20248730	         10.69067809	        -13.56572651	        106.58837029	          0.90178567	         -3.09372051	         -0.83289961	         -1.80331176	         -0.05766169	          0.01560792	        169.25407052	        -92.66810558	         93.27951470	         91.96574683	        -40.68162904	         23.04510987	         36.57359024	         31.54337460	         45.97904253	          0.98654013	         24.82853581	          3.43993033	         -0.01035003	
         10.18000000	          0.00000003	          0.00000012	         -0.00000001	         -0.00000002	         -0.00000001	         -0.00000000	        110.37141864	        -14.73603740	          6.57932696	       -212.97437140	         58.07220457	         12.62216148	         -7.55013722	        108.01975401	          2.51925082	         -1.99316346	         -1.43056733	         -2.15543743	         -0.19137862	         -0.02648666	        144.11287955	       -101.58054644	        110.28747864	        105.83226867	        -68.36437305	         37.96056981	         21.68444117	         57.31835841	         71.72868452	         18.99590996	        -18.96556147	          5.84556990	          1.92413899	
         10.19000000	          0.00000005	          0.00000015	         -0.00000000	         -0.00000004	         -0.00000006	          0.00000003	        123.23758844	         -6.84613102	          6.99009764	       -198.55737146	         63.00123194	         15.14789141	         -5.63798904	        108.91864339	          2.78434828	         -2.01971486	         -1.48445307	         -2.52047108	         -0.19867036	          0.02209985	         87.34121996	        -92.61933078	         94.69264133	        115.92767778	        -88.73892675	          2.00740540	        -21.20156717	          5.68625780	         37.95561417	        -23.66400796	        -51.45776615	          1.24862716	          2.77616135	
         10.20000000	         -0.00000001	         -0.00000001	         -0.00000001	         -0.00000004	         -0.00000004	          0.00000002	        136.10747766	         -2.94056371	          8.92520348	       -181.76804756	         61.79884742	         18.16446191	         -4.60865170	        103.19464810	          3.10164312	         -2.30761577	         -1.88163704	         -2.87354510	         -0.21026550	          0.09598102	         32.41202972	        -73.16037332	         77.04454834	         64.82265347	       -103.83292596	        -17.58271486	        -53.34756708	        -32.96610890	         10.24812408	        -42.96618804	        -75.33685032	          1.20246447	          3.45476625	
         10.21000000	         -0.00000002	         -0.00000006	         -0.00000001	         -0.00000003	         -0.00000004	          0.00000003	        139.94133118	         -4.70292218	          9.61692934	       -165.86271932	         55.73669009	         21.68274610	         -6.05315757	         92.51470152	          5.26086736	         -2.37105000	         -3.01821324	         -3.37235891	         -0.39067196	          0.15005308	         12.57901204	        -61.21769216	         69.57030891	         11.01316201	        -70.75179359	         13.02560024	        -77.44075273	        -61.83286720	        -29.86501289	        -11.27028805	        -74.97180752	          7.47005167	          3.03113963	
         10.22000000	          0.00000000	          0.00000001	          0.00000000	          0.00000003	         -0.00000003	         -0.00000001	        138.58407885	         -3.59009079	         11.70383221	       -154.67040323	         48.85411905	         26.74431659	         -6.92875773	         81.74304965	          9.40147866	         -2.75689145	         -4.33918667	         -3.26479303	         -0.76570385	          0.17650670	        -20.48821728	        -54.05566713	         41.58964207	        -29.35987923	        -15.96878200	         22.14129812	        -95.68413692	        -83.42919317	        -59.91962867	        -21.00244859	        -17.70535417	          5.00381082	          0.62967988	
